# xmcd
#
# Track frame offsets:
#	150
#	10125
#	21825
#	32850
#	44100
#	56925
#	68250
#	81300
#	91125
#	102675
#	112725
#
# Disc length: 1622 seconds
#
# Revision: 0
# Processed by: cddbd v1.5.2PL0 Copyright (c) Steve Scherf et al.
# Submitted via: EasyCDDAExtractor 10.0.6.1
#
DISCID=8c06540b
DTITLE=Jim and Jesse - Songs Of Inspiration
DYEAR=1900
DGENRE=Bluegrass
TTITLE0=Over In Gloryland
TTITLE1=Life's Highway To Heaven
TTITLE2=There's A Light Guiding Me
TTITLE3=An Old Account Settled
TTITLE4=Wait A Little Longer
TTITLE5=Everybody Will Be Happy 
TTITLE6=Great Speckled Bird
TTITLE7=We Are Climbing
TTITLE8=When My Savior Reached Down
TTITLE9=Something Got A Hold Of Me
TTITLE10=Amazing Grace
EXTD=
EXTT0=
EXTT1=
EXTT2=
EXTT3=
EXTT4=
EXTT5=
EXTT6=
EXTT7=
EXTT8=
EXTT9=
EXTT10=
PLAYORDER=
